<?xml version="1.0" encoding="UTF-8" standalone="no"?>
<!DOCTYPE svg PUBLIC "-//W3C//DTD SVG 1.1//EN" "http://www.w3.org/Graphics/SVG/1.1/DTD/svg11.dtd">
<svg version="1.1" xmlns="http://www.w3.org/2000/svg" xmlns:xlink="http://www.w3.org/1999/xlink" preserveAspectRatio="xMidYMid meet" viewBox="-0.19047619047619047 -0.19047619047619047 34.76190476190476 34.76190476190476" width="30.76" height="30.76"><defs><path d="M0.81 16.19C0.81 24.68 7.7 31.57 16.19 31.57C24.68 31.57 31.57 24.68 31.57 16.19C31.57 7.7 24.68 0.81 16.19 0.81C7.7 0.81 0.81 7.7 0.81 16.19Z" id="aAq15fIo3"></path><path d="M0.81 16.19C0.81 24.68 7.7 31.57 16.19 31.57C24.68 31.57 31.57 24.68 31.57 16.19C31.57 7.7 24.68 0.81 16.19 0.81C7.7 0.81 0.81 7.7 0.81 16.19Z" id="cesyY7pAo"></path><path d="M25.5 6.07L25.5 25.5L6.07 25.5L6.07 6.07L25.5 6.07Z" id="f1zplAM2Bb"></path><path d="M25.5 6.07L25.5 25.5L6.07 25.5L6.07 6.07L25.5 6.07Z" id="c1Lo5IX9E"></path><path d="M15.79 23.88C20.25 23.88 23.88 20.25 23.88 15.79C23.88 11.32 20.25 7.69 15.79 7.69C11.32 7.69 7.69 11.32 7.69 15.79C7.69 20.25 11.32 23.88 15.79 23.88ZM15.79 14.98C14.44 14.98 13.36 13.89 13.36 12.55C13.36 11.2 14.44 10.12 15.79 10.12C17.13 10.12 18.21 11.2 18.21 12.55C18.21 13.89 17.13 14.98 15.79 14.98ZM15.79 16.51C17.4 16.51 20.62 17.4 20.64 19.01C19.6 20.58 17.81 21.61 15.79 21.61C13.76 21.61 11.97 20.58 10.93 19.01C10.95 17.4 14.17 16.51 15.79 16.51Z" id="e56cxPy6IE"></path><path d="M15.79 23.88C20.25 23.88 23.88 20.25 23.88 15.79C23.88 11.32 20.25 7.69 15.79 7.69C11.32 7.69 7.69 11.32 7.69 15.79C7.69 20.25 11.32 23.88 15.79 23.88ZM15.79 14.98C14.44 14.98 13.36 13.89 13.36 12.55C13.36 11.2 14.44 10.12 15.79 10.12C17.13 10.12 18.21 11.2 18.21 12.55C18.21 13.89 17.13 14.98 15.79 14.98ZM15.79 16.51C17.4 16.51 20.62 17.4 20.64 19.01C19.6 20.58 17.81 21.61 15.79 21.61C13.76 21.61 11.97 20.58 10.93 19.01C10.95 17.4 14.17 16.51 15.79 16.51Z" id="eg5YmUYsS"></path></defs><g><g><use xlink:href="#aAq15fIo3" opacity="1" fill="#f9bf2d" fill-opacity="1"></use><g><use xlink:href="#aAq15fIo3" opacity="1" fill-opacity="0" stroke="#000000" stroke-width="1" stroke-opacity="0"></use></g></g><g><use xlink:href="#cesyY7pAo" opacity="1" fill="#000000" fill-opacity="0"></use><g><use xlink:href="#cesyY7pAo" opacity="1" fill-opacity="0" stroke="#000000" stroke-width="0" stroke-opacity="1"></use></g></g><g><use xlink:href="#f1zplAM2Bb" opacity="1" fill="#120000" fill-opacity="0"></use><g><use xlink:href="#f1zplAM2Bb" opacity="1" fill-opacity="0" stroke="#000000" stroke-width="1" stroke-opacity="0"></use></g></g><g><use xlink:href="#c1Lo5IX9E" opacity="1" fill="#000000" fill-opacity="0"></use><g><use xlink:href="#c1Lo5IX9E" opacity="1" fill-opacity="0" stroke="#000000" stroke-width="1" stroke-opacity="0"></use></g></g><g><use xlink:href="#e56cxPy6IE" opacity="1" fill="#ffffff" fill-opacity="1"></use><g><use xlink:href="#e56cxPy6IE" opacity="1" fill-opacity="0" stroke="#000000" stroke-width="1" stroke-opacity="0"></use></g></g><g><use xlink:href="#eg5YmUYsS" opacity="1" fill="#000000" fill-opacity="0"></use><g><use xlink:href="#eg5YmUYsS" opacity="1" fill-opacity="0" stroke="#000000" stroke-width="1" stroke-opacity="0"></use></g></g></g></svg>