<?xml version="1.0" encoding="UTF-8" standalone="no"?>
<!DOCTYPE svg PUBLIC "-//W3C//DTD SVG 1.1//EN" "http://www.w3.org/Graphics/SVG/1.1/DTD/svg11.dtd">
<svg version="1.1" xmlns="http://www.w3.org/2000/svg" xmlns:xlink="http://www.w3.org/1999/xlink" preserveAspectRatio="xMidYMid meet" viewBox="-0.5 -0.5 42 42" width="34.56" height="34.56"><defs><path d="M19.5 0.5C9.01 0.5 0.5 9.01 0.5 19.5C0.5 29.99 9.01 38.5 19.5 38.5C29.99 38.5 38.5 29.99 38.5 19.5C38.5 9.01 29.99 0.5 19.5 0.5Z" id="b1qkXiR5HM"></path><path d="M7 7L31 7L31 31L7 31L7 7Z" id="ckEiS2Bzo"></path><path d="M9 19C9 24.52 13.48 29 19 29C24.52 29 29 24.52 29 19C29 13.48 24.52 9 19 9C13.48 9 9 13.48 9 19ZM22 15C22 16.66 20.66 18 19 18C17.34 18 16 16.66 16 15C16 13.34 17.34 12 19 12C20.66 12 22 13.34 22 15ZM13 22.98C13.03 20.99 17 19.9 19 19.9C20.99 19.9 24.97 20.99 25 22.98C23.71 24.92 21.5 26.2 19 26.2C16.5 26.2 14.29 24.92 13 22.98Z" id="a54HTumXzD"></path></defs><g><g><use xlink:href="#b1qkXiR5HM" opacity="1" fill="#ff5722" fill-opacity="1"></use><g><use xlink:href="#b1qkXiR5HM" opacity="1" fill-opacity="0" stroke="#000000" stroke-width="0" stroke-opacity="1"></use></g></g><g><use xlink:href="#ckEiS2Bzo" opacity="1" fill="#120000" fill-opacity="0"></use><g><use xlink:href="#ckEiS2Bzo" opacity="1" fill-opacity="0" stroke="#000000" stroke-width="1" stroke-opacity="0"></use></g></g><g><use xlink:href="#a54HTumXzD" opacity="1" fill="#ffffff" fill-opacity="1"></use><g><use xlink:href="#a54HTumXzD" opacity="1" fill-opacity="0" stroke="#000000" stroke-width="1" stroke-opacity="0"></use></g></g></g></svg>
