<?xml version="1.0" encoding="UTF-8" standalone="no"?>
<!DOCTYPE svg PUBLIC "-//W3C//DTD SVG 1.1//EN" "http://www.w3.org/Graphics/SVG/1.1/DTD/svg11.dtd">
<svg version="1.1" xmlns="http://www.w3.org/2000/svg" xmlns:xlink="http://www.w3.org/1999/xlink" preserveAspectRatio="xMidYMid meet" viewBox="-1 -1 40 40" width="36" height="36"><defs><path d="M0 18C0 27.94 8.06 36 18 36C27.94 36 36 27.94 36 18C36 8.06 27.94 0 18 0C8.06 0 0 8.06 0 18Z" id="d3SG61LV76"></path><path d="M0 18C0 27.94 8.06 36 18 36C27.94 36 36 27.94 36 18C36 8.06 27.94 0 18 0C8.06 0 0 8.06 0 18Z" id="b96GhiBFv"></path><path d="M29 5L29 29L5 29L5 5L29 5Z" id="a4ziD2GH1R"></path><path d="M29 5L29 29L5 29L5 5L29 5Z" id="e6Ec3QKkA"></path><path d="M7 8L7 26L27 26L27 12L17 12L17 8L7 8ZM9 22L11 22L11 24L9 24L9 22ZM9 18L11 18L11 20L9 20L9 18ZM9 14L11 14L11 16L9 16L9 14ZM9 10L11 10L11 12L9 12L9 10ZM13 22L15 22L15 24L13 24L13 22ZM13 18L15 18L15 20L13 20L13 18ZM13 14L15 14L15 16L13 16L13 14ZM13 10L15 10L15 12L13 12L13 10ZM17 22L19 22L19 20L17 20L17 18L19 18L19 16L17 16L17 14L25 14L25 24L17 24L17 22ZM21 18L23 18L23 16L21 16L21 18ZM21 22L23 22L23 20L21 20L21 22Z" id="a70p5Th2OK"></path><path d="M7 8L7 26L27 26L27 12L17 12L17 8L7 8ZM9 22L11 22L11 24L9 24L9 22ZM9 18L11 18L11 20L9 20L9 18ZM9 14L11 14L11 16L9 16L9 14ZM9 10L11 10L11 12L9 12L9 10ZM13 22L15 22L15 24L13 24L13 22ZM13 18L15 18L15 20L13 20L13 18ZM13 14L15 14L15 16L13 16L13 14ZM13 10L15 10L15 12L13 12L13 10ZM17 22L19 22L19 20L17 20L17 18L19 18L19 16L17 16L17 14L25 14L25 24L17 24L17 22ZM21 18L23 18L23 16L21 16L21 18ZM21 22L23 22L23 20L21 20L21 22Z" id="a4uodIbd4"></path></defs><g><g><use xlink:href="#d3SG61LV76" opacity="1" fill="#ff5722" fill-opacity="1"></use><g><use xlink:href="#d3SG61LV76" opacity="1" fill-opacity="0" stroke="#000000" stroke-width="1" stroke-opacity="0"></use></g></g><g><use xlink:href="#b96GhiBFv" opacity="1" fill="#000000" fill-opacity="0"></use><g><use xlink:href="#b96GhiBFv" opacity="1" fill-opacity="0" stroke="#000000" stroke-width="0" stroke-opacity="1"></use></g></g><g><use xlink:href="#a4ziD2GH1R" opacity="1" fill="#000000" fill-opacity="0"></use><g><use xlink:href="#a4ziD2GH1R" opacity="1" fill-opacity="0" stroke="#000000" stroke-width="1" stroke-opacity="0"></use></g></g><g><use xlink:href="#e6Ec3QKkA" opacity="1" fill="#000000" fill-opacity="0"></use><g><use xlink:href="#e6Ec3QKkA" opacity="1" fill-opacity="0" stroke="#000000" stroke-width="1" stroke-opacity="0"></use></g></g><g><use xlink:href="#a70p5Th2OK" opacity="1" fill="#ffffff" fill-opacity="1"></use><g><use xlink:href="#a70p5Th2OK" opacity="1" fill-opacity="0" stroke="#000000" stroke-width="1" stroke-opacity="0"></use></g></g><g><use xlink:href="#a4uodIbd4" opacity="1" fill="#000000" fill-opacity="0"></use><g><use xlink:href="#a4uodIbd4" opacity="1" fill-opacity="0" stroke="#000000" stroke-width="1" stroke-opacity="0"></use></g></g></g></svg>
