<?xml version="1.0" encoding="UTF-8" standalone="no"?>
<!DOCTYPE svg PUBLIC "-//W3C//DTD SVG 1.1//EN" "http://www.w3.org/Graphics/SVG/1.1/DTD/svg11.dtd">
<svg version="1.1" xmlns="http://www.w3.org/2000/svg" xmlns:xlink="http://www.w3.org/1999/xlink" preserveAspectRatio="xMidYMid meet" viewBox="-1 -1 40 40" width="36" height="36"><defs><path d="M18 0C8.06 0 0 8.06 0 18C0 27.94 8.06 36 18 36C27.94 36 36 27.94 36 18C36 8.06 27.94 0 18 0Z" id="aiy9bD7o0"></path><path d="M5 5L29 5L29 29L5 29L5 5Z" id="jffviEDY0"></path><path d="M17 8L7 8L7 26L27 26L27 12L17 12L17 8ZM9 24L9 22L11 22L11 24L9 24ZM9 20L9 18L11 18L11 20L9 20ZM9 16L9 14L11 14L11 16L9 16ZM9 12L9 10L11 10L11 12L9 12ZM13 24L13 22L15 22L15 24L13 24ZM13 20L13 18L15 18L15 20L13 20ZM13 16L13 14L15 14L15 16L13 16ZM13 12L13 10L15 10L15 12L13 12ZM17 24L17 22L19 22L19 20L17 20L17 18L19 18L19 16L17 16L17 14L25 14L25 24L17 24ZM21 16L21 18L23 18L23 16L21 16ZM21 20L21 22L23 22L23 20L21 20Z" id="d3MbYyLLK"></path></defs><g><g><use xlink:href="#aiy9bD7o0" opacity="1" fill="#f9bf2d" fill-opacity="1"></use><g><use xlink:href="#aiy9bD7o0" opacity="1" fill-opacity="0" stroke="#000000" stroke-width="0" stroke-opacity="1"></use></g></g><g><use xlink:href="#jffviEDY0" opacity="1" fill="#000000" fill-opacity="0"></use><g><use xlink:href="#jffviEDY0" opacity="1" fill-opacity="0" stroke="#000000" stroke-width="1" stroke-opacity="0"></use></g></g><g><use xlink:href="#d3MbYyLLK" opacity="1" fill="#ffffff" fill-opacity="1"></use><g><use xlink:href="#d3MbYyLLK" opacity="1" fill-opacity="0" stroke="#000000" stroke-width="1" stroke-opacity="0"></use></g></g></g></svg>