<?xml version="1.0" encoding="UTF-8" standalone="no"?>
<!DOCTYPE svg PUBLIC "-//W3C//DTD SVG 1.1//EN" "http://www.w3.org/Graphics/SVG/1.1/DTD/svg11.dtd">
<svg version="1.1" xmlns="http://www.w3.org/2000/svg" xmlns:xlink="http://www.w3.org/1999/xlink" preserveAspectRatio="xMidYMid meet" viewBox="-0.5 -0.5 39 39" width="35" height="35"><defs><path d="M0.5 18C0.5 27.66 8.34 35.5 18 35.5C27.66 35.5 35.5 27.66 35.5 18C35.5 8.34 27.66 0.5 18 0.5C8.34 0.5 0.5 8.34 0.5 18Z" id="acyP4BZ3Q"></path><path d="M0.5 18C0.5 27.66 8.34 35.5 18 35.5C27.66 35.5 35.5 27.66 35.5 18C35.5 8.34 27.66 0.5 18 0.5C8.34 0.5 0.5 8.34 0.5 18Z" id="a4GhpcS1FN"></path><path d="M30 6C30 20.4 30 28.4 30 30C30 30 30 30 30 30C15.6 30 7.6 30 6 30C6 30 6 30 6 30C6 15.6 6 7.6 6 6C6 6 6 6 6 6C20.4 6 28.4 6 30 6C30 6 30 6 30 6Z" id="lWEOIgRxB"></path><path d="M30 6C30 20.4 30 28.4 30 30C30 30 30 30 30 30C15.6 30 7.6 30 6 30C6 30 6 30 6 30C6 15.6 6 7.6 6 6C6 6 6 6 6 6C20.4 6 28.4 6 30 6C30 6 30 6 30 6Z" id="e8K0XnFK2"></path><path d="M14.08 11.24C22.56 19.73 27.27 24.45 28.21 25.39C28.21 25.39 28.21 25.39 28.21 25.39C26.52 27.09 25.57 28.03 25.38 28.22C25.38 28.22 25.38 28.22 25.38 28.22C16.9 19.73 12.19 15.01 11.25 14.07C11.25 14.07 11.25 14.07 11.25 14.07C12.95 12.37 13.89 11.43 14.08 11.24C14.08 11.24 14.08 11.24 14.08 11.24Z" id="b4sPbRDc4v"></path><path d="M14.08 11.24C22.56 19.73 27.27 24.45 28.21 25.39C28.21 25.39 28.21 25.39 28.21 25.39C26.52 27.09 25.57 28.03 25.38 28.22C25.38 28.22 25.38 28.22 25.38 28.22C16.9 19.73 12.19 15.01 11.25 14.07C11.25 14.07 11.25 14.07 11.25 14.07C12.95 12.37 13.89 11.43 14.08 11.24C14.08 11.24 14.08 11.24 14.08 11.24Z" id="d5i7HlbY1o"></path><path d="M18.31 7C21.71 10.39 23.59 12.28 23.97 12.65C23.97 12.65 23.97 12.65 23.97 12.65C22.27 14.35 21.33 15.29 21.14 15.48C21.14 15.48 21.14 15.48 21.14 15.48C17.75 12.09 15.86 10.2 15.49 9.83C15.49 9.83 15.49 9.83 15.49 9.83C17.18 8.13 18.13 7.19 18.31 7C18.31 7 18.31 7 18.31 7Z" id="a1f9127Nta"></path><path d="M18.31 7C21.71 10.39 23.59 12.28 23.97 12.65C23.97 12.65 23.97 12.65 23.97 12.65C22.27 14.35 21.33 15.29 21.14 15.48C21.14 15.48 21.14 15.48 21.14 15.48C17.75 12.09 15.86 10.2 15.49 9.83C15.49 9.83 15.49 9.83 15.49 9.83C17.18 8.13 18.13 7.19 18.31 7C18.31 7 18.31 7 18.31 7Z" id="cb1sHMaqO"></path><path d="M9.83 15.49C13.22 18.88 15.11 20.77 15.48 21.14C15.48 21.14 15.48 21.14 15.48 21.14C13.79 22.84 12.84 23.78 12.66 23.97C12.66 23.97 12.66 23.97 12.66 23.97C9.26 20.58 7.38 18.69 7 18.31C7 18.31 7 18.31 7 18.31C8.7 16.62 9.64 15.67 9.83 15.49C9.83 15.49 9.83 15.49 9.83 15.49Z" id="bBX54aWyN"></path><path d="M9.83 15.49C13.22 18.88 15.11 20.77 15.48 21.14C15.48 21.14 15.48 21.14 15.48 21.14C13.79 22.84 12.84 23.78 12.66 23.97C12.66 23.97 12.66 23.97 12.66 23.97C9.26 20.58 7.38 18.69 7 18.31C7 18.31 7 18.31 7 18.31C8.7 16.62 9.64 15.67 9.83 15.49C9.83 15.49 9.83 15.49 9.83 15.49Z" id="a12neg8m0i"></path><path d="M19 27C19 28.2 19 28.87 19 29C19 29 19 29 19 29C11.8 29 7.8 29 7 29C7 29 7 29 7 29C7 27.8 7 27.13 7 27C7 27 7 27 7 27C14.2 27 18.2 27 19 27C19 27 19 27 19 27Z" id="c2Ewgtw2j2"></path><path d="M19 27C19 28.2 19 28.87 19 29C19 29 19 29 19 29C11.8 29 7.8 29 7 29C7 29 7 29 7 29C7 27.8 7 27.13 7 27C7 27 7 27 7 27C14.2 27 18.2 27 19 27C19 27 19 27 19 27Z" id="dmVk30OXR"></path></defs><g><g><use xlink:href="#acyP4BZ3Q" opacity="1" fill="#2196f3" fill-opacity="1"></use><g><use xlink:href="#acyP4BZ3Q" opacity="1" fill-opacity="0" stroke="#000000" stroke-width="1" stroke-opacity="0"></use></g></g><g><use xlink:href="#a4GhpcS1FN" opacity="1" fill="#000000" fill-opacity="0"></use><g><use xlink:href="#a4GhpcS1FN" opacity="1" fill-opacity="0" stroke="#000000" stroke-width="0" stroke-opacity="1"></use></g></g><g><use xlink:href="#lWEOIgRxB" opacity="1" fill="#000000" fill-opacity="0"></use><g><use xlink:href="#lWEOIgRxB" opacity="1" fill-opacity="0" stroke="#000000" stroke-width="1" stroke-opacity="0"></use></g></g><g><use xlink:href="#e8K0XnFK2" opacity="1" fill="#000000" fill-opacity="0"></use><g><use xlink:href="#e8K0XnFK2" opacity="1" fill-opacity="0" stroke="#000000" stroke-width="1" stroke-opacity="0"></use></g></g><g><use xlink:href="#b4sPbRDc4v" opacity="1" fill="#ffffff" fill-opacity="1"></use><g><use xlink:href="#b4sPbRDc4v" opacity="1" fill-opacity="0" stroke="#000000" stroke-width="1" stroke-opacity="0"></use></g></g><g><use xlink:href="#d5i7HlbY1o" opacity="1" fill="#000000" fill-opacity="0"></use><g><use xlink:href="#d5i7HlbY1o" opacity="1" fill-opacity="0" stroke="#000000" stroke-width="1" stroke-opacity="0"></use></g></g><g><use xlink:href="#a1f9127Nta" opacity="1" fill="#ffffff" fill-opacity="1"></use><g><use xlink:href="#a1f9127Nta" opacity="1" fill-opacity="0" stroke="#000000" stroke-width="1" stroke-opacity="0"></use></g></g><g><use xlink:href="#cb1sHMaqO" opacity="1" fill="#000000" fill-opacity="0"></use><g><use xlink:href="#cb1sHMaqO" opacity="1" fill-opacity="0" stroke="#000000" stroke-width="1" stroke-opacity="0"></use></g></g><g><use xlink:href="#bBX54aWyN" opacity="1" fill="#ffffff" fill-opacity="1"></use><g><use xlink:href="#bBX54aWyN" opacity="1" fill-opacity="0" stroke="#000000" stroke-width="1" stroke-opacity="0"></use></g></g><g><use xlink:href="#a12neg8m0i" opacity="1" fill="#000000" fill-opacity="0"></use><g><use xlink:href="#a12neg8m0i" opacity="1" fill-opacity="0" stroke="#000000" stroke-width="1" stroke-opacity="0"></use></g></g><g><use xlink:href="#c2Ewgtw2j2" opacity="1" fill="#ffffff" fill-opacity="1"></use><g><use xlink:href="#c2Ewgtw2j2" opacity="1" fill-opacity="0" stroke="#000000" stroke-width="1" stroke-opacity="0"></use></g></g><g><use xlink:href="#dmVk30OXR" opacity="1" fill="#000000" fill-opacity="0"></use><g><use xlink:href="#dmVk30OXR" opacity="1" fill-opacity="0" stroke="#000000" stroke-width="1" stroke-opacity="0"></use></g></g></g></svg>
