<?xml version="1.0" encoding="UTF-8" standalone="no"?>
<!DOCTYPE svg PUBLIC "-//W3C//DTD SVG 1.1//EN" "http://www.w3.org/Graphics/SVG/1.1/DTD/svg11.dtd">
<svg version="1.1" xmlns="http://www.w3.org/2000/svg" xmlns:xlink="http://www.w3.org/1999/xlink" preserveAspectRatio="xMidYMid meet" viewBox="-0.10256410256410264 -0.10256410256410264 35.41025641025641 35.41025641025641" width="31.41" height="31.41"><defs><path d="M16.6 32.31C25.27 32.31 32.31 25.27 32.31 16.6C32.31 7.93 25.27 0.9 16.6 0.9C7.93 0.9 0.9 7.93 0.9 16.6C0.9 25.27 7.93 32.31 16.6 32.31Z" id="cd5LPCle1"></path><path d="M16.6 32.31C25.27 32.31 32.31 25.27 32.31 16.6C32.31 7.93 25.27 0.9 16.6 0.9C7.93 0.9 0.9 7.93 0.9 16.6C0.9 25.27 7.93 32.31 16.6 32.31Z" id="c5tdU4CMs"></path><path d="M16.6 32.31C25.27 32.31 32.31 25.27 32.31 16.6C32.31 7.93 25.27 0.9 16.6 0.9C7.93 0.9 0.9 7.93 0.9 16.6C0.9 25.27 7.93 32.31 16.6 32.31Z" id="dlPXdmawD"></path><path d="M16.6 32.31C25.27 32.31 32.31 25.27 32.31 16.6C32.31 7.93 25.27 0.9 16.6 0.9C7.93 0.9 0.9 7.93 0.9 16.6C0.9 25.27 7.93 32.31 16.6 32.31Z" id="f78lPhqe4"></path><path d="M27.37 27.37C27.37 27.37 27.37 27.37 27.37 27.37C14.45 27.37 7.27 27.37 5.83 27.37C5.83 27.37 5.83 27.37 5.83 27.37C5.83 14.45 5.83 7.27 5.83 5.83C5.83 5.83 5.83 5.83 5.83 5.83C18.76 5.83 25.94 5.83 27.37 5.83C27.37 5.83 27.37 5.83 27.37 5.83C27.37 18.76 27.37 25.94 27.37 27.37Z" id="c7EB7e1TJa"></path><path d="M27.37 27.37C27.37 27.37 27.37 27.37 27.37 27.37C14.45 27.37 7.27 27.37 5.83 27.37C5.83 27.37 5.83 27.37 5.83 27.37C5.83 14.45 5.83 7.27 5.83 5.83C5.83 5.83 5.83 5.83 5.83 5.83C18.76 5.83 25.94 5.83 27.37 5.83C27.37 5.83 27.37 5.83 27.37 5.83C27.37 18.76 27.37 25.94 27.37 27.37Z" id="k3nyIqGAe1"></path><path d="M27.37 27.37C27.37 27.37 27.37 27.37 27.37 27.37C14.45 27.37 7.27 27.37 5.83 27.37C5.83 27.37 5.83 27.37 5.83 27.37C5.83 14.45 5.83 7.27 5.83 5.83C5.83 5.83 5.83 5.83 5.83 5.83C18.76 5.83 25.94 5.83 27.37 5.83C27.37 5.83 27.37 5.83 27.37 5.83C27.37 18.76 27.37 25.94 27.37 27.37Z" id="a9wlnLG6g"></path><path d="M27.37 27.37C27.37 27.37 27.37 27.37 27.37 27.37C14.45 27.37 7.27 27.37 5.83 27.37C5.83 27.37 5.83 27.37 5.83 27.37C5.83 14.45 5.83 7.27 5.83 5.83C5.83 5.83 5.83 5.83 5.83 5.83C18.76 5.83 25.94 5.83 27.37 5.83C27.37 5.83 27.37 5.83 27.37 5.83C27.37 18.76 27.37 25.94 27.37 27.37Z" id="fchwmKNL5"></path><path d="M25.77 23.23C25.77 23.23 25.77 23.23 25.77 23.23C24.25 24.76 23.4 25.6 23.23 25.77C23.23 25.77 23.23 25.77 23.23 25.77C15.62 18.16 11.39 13.92 10.54 13.08C10.54 13.08 10.54 13.08 10.54 13.08C12.07 11.55 12.91 10.71 13.08 10.54C13.08 10.54 13.08 10.54 13.08 10.54C20.69 18.16 24.92 22.39 25.77 23.23Z" id="c2RRrkPWbN"></path><path d="M25.77 23.23C25.77 23.23 25.77 23.23 25.77 23.23C24.25 24.76 23.4 25.6 23.23 25.77C23.23 25.77 23.23 25.77 23.23 25.77C15.62 18.16 11.39 13.92 10.54 13.08C10.54 13.08 10.54 13.08 10.54 13.08C12.07 11.55 12.91 10.71 13.08 10.54C13.08 10.54 13.08 10.54 13.08 10.54C20.69 18.16 24.92 22.39 25.77 23.23Z" id="b6HmTTWs3s"></path><path d="M25.77 23.23C25.77 23.23 25.77 23.23 25.77 23.23C24.25 24.76 23.4 25.6 23.23 25.77C23.23 25.77 23.23 25.77 23.23 25.77C15.62 18.16 11.39 13.92 10.54 13.08C10.54 13.08 10.54 13.08 10.54 13.08C12.07 11.55 12.91 10.71 13.08 10.54C13.08 10.54 13.08 10.54 13.08 10.54C20.69 18.16 24.92 22.39 25.77 23.23Z" id="cWE1w5KuP"></path><path d="M25.77 23.23C25.77 23.23 25.77 23.23 25.77 23.23C24.25 24.76 23.4 25.6 23.23 25.77C23.23 25.77 23.23 25.77 23.23 25.77C15.62 18.16 11.39 13.92 10.54 13.08C10.54 13.08 10.54 13.08 10.54 13.08C12.07 11.55 12.91 10.71 13.08 10.54C13.08 10.54 13.08 10.54 13.08 10.54C20.69 18.16 24.92 22.39 25.77 23.23Z" id="bhfgEuLND"></path><path d="M21.96 11.8C21.96 11.8 21.96 11.8 21.96 11.8C20.43 13.33 19.59 14.17 19.42 14.34C19.42 14.34 19.42 14.34 19.42 14.34C16.38 11.3 14.68 9.6 14.35 9.27C14.35 9.27 14.35 9.27 14.35 9.27C15.87 7.74 16.72 6.9 16.88 6.73C16.88 6.73 16.88 6.73 16.88 6.73C19.93 9.77 21.62 11.47 21.96 11.8Z" id="aPERDqp5C"></path><path d="M21.96 11.8C21.96 11.8 21.96 11.8 21.96 11.8C20.43 13.33 19.59 14.17 19.42 14.34C19.42 14.34 19.42 14.34 19.42 14.34C16.38 11.3 14.68 9.6 14.35 9.27C14.35 9.27 14.35 9.27 14.35 9.27C15.87 7.74 16.72 6.9 16.88 6.73C16.88 6.73 16.88 6.73 16.88 6.73C19.93 9.77 21.62 11.47 21.96 11.8Z" id="a6ihQHdpxT"></path><path d="M21.96 11.8C21.96 11.8 21.96 11.8 21.96 11.8C20.43 13.33 19.59 14.17 19.42 14.34C19.42 14.34 19.42 14.34 19.42 14.34C16.38 11.3 14.68 9.6 14.35 9.27C14.35 9.27 14.35 9.27 14.35 9.27C15.87 7.74 16.72 6.9 16.88 6.73C16.88 6.73 16.88 6.73 16.88 6.73C19.93 9.77 21.62 11.47 21.96 11.8Z" id="d5sr4Mhb8M"></path><path d="M21.96 11.8C21.96 11.8 21.96 11.8 21.96 11.8C20.43 13.33 19.59 14.17 19.42 14.34C19.42 14.34 19.42 14.34 19.42 14.34C16.38 11.3 14.68 9.6 14.35 9.27C14.35 9.27 14.35 9.27 14.35 9.27C15.87 7.74 16.72 6.9 16.88 6.73C16.88 6.73 16.88 6.73 16.88 6.73C19.93 9.77 21.62 11.47 21.96 11.8Z" id="e15RS23q6X"></path><path d="M14.34 19.42C14.34 19.42 14.34 19.42 14.34 19.42C12.82 20.95 11.97 21.79 11.81 21.96C11.81 21.96 11.81 21.96 11.81 21.96C8.76 18.92 7.07 17.22 6.73 16.88C6.73 16.88 6.73 16.88 6.73 16.88C8.26 15.36 9.1 14.51 9.27 14.35C9.27 14.35 9.27 14.35 9.27 14.35C12.31 17.39 14.01 19.09 14.34 19.42Z" id="b1WuNWvvva"></path><path d="M14.34 19.42C14.34 19.42 14.34 19.42 14.34 19.42C12.82 20.95 11.97 21.79 11.81 21.96C11.81 21.96 11.81 21.96 11.81 21.96C8.76 18.92 7.07 17.22 6.73 16.88C6.73 16.88 6.73 16.88 6.73 16.88C8.26 15.36 9.1 14.51 9.27 14.35C9.27 14.35 9.27 14.35 9.27 14.35C12.31 17.39 14.01 19.09 14.34 19.42Z" id="baE6jEgoj"></path><path d="M14.34 19.42C14.34 19.42 14.34 19.42 14.34 19.42C12.82 20.95 11.97 21.79 11.81 21.96C11.81 21.96 11.81 21.96 11.81 21.96C8.76 18.92 7.07 17.22 6.73 16.88C6.73 16.88 6.73 16.88 6.73 16.88C8.26 15.36 9.1 14.51 9.27 14.35C9.27 14.35 9.27 14.35 9.27 14.35C12.31 17.39 14.01 19.09 14.34 19.42Z" id="c1hgYYtFtO"></path><path d="M14.34 19.42C14.34 19.42 14.34 19.42 14.34 19.42C12.82 20.95 11.97 21.79 11.81 21.96C11.81 21.96 11.81 21.96 11.81 21.96C8.76 18.92 7.07 17.22 6.73 16.88C6.73 16.88 6.73 16.88 6.73 16.88C8.26 15.36 9.1 14.51 9.27 14.35C9.27 14.35 9.27 14.35 9.27 14.35C12.31 17.39 14.01 19.09 14.34 19.42Z" id="d5680DCpvy"></path><path d="M17.5 26.47C17.5 26.47 17.5 26.47 17.5 26.47C11.04 26.47 7.45 26.47 6.73 26.47C6.73 26.47 6.73 26.47 6.73 26.47C6.73 25.4 6.73 24.8 6.73 24.68C6.73 24.68 6.73 24.68 6.73 24.68C13.19 24.68 16.78 24.68 17.5 24.68C17.5 24.68 17.5 24.68 17.5 24.68C17.5 25.76 17.5 26.36 17.5 26.47Z" id="a7hpZ54wHO"></path><path d="M17.5 26.47C17.5 26.47 17.5 26.47 17.5 26.47C11.04 26.47 7.45 26.47 6.73 26.47C6.73 26.47 6.73 26.47 6.73 26.47C6.73 25.4 6.73 24.8 6.73 24.68C6.73 24.68 6.73 24.68 6.73 24.68C13.19 24.68 16.78 24.68 17.5 24.68C17.5 24.68 17.5 24.68 17.5 24.68C17.5 25.76 17.5 26.36 17.5 26.47Z" id="cpgfKGtow"></path><path d="M17.5 26.47C17.5 26.47 17.5 26.47 17.5 26.47C11.04 26.47 7.45 26.47 6.73 26.47C6.73 26.47 6.73 26.47 6.73 26.47C6.73 25.4 6.73 24.8 6.73 24.68C6.73 24.68 6.73 24.68 6.73 24.68C13.19 24.68 16.78 24.68 17.5 24.68C17.5 24.68 17.5 24.68 17.5 24.68C17.5 25.76 17.5 26.36 17.5 26.47Z" id="dTJ4fMWCm"></path><path d="M17.5 26.47C17.5 26.47 17.5 26.47 17.5 26.47C11.04 26.47 7.45 26.47 6.73 26.47C6.73 26.47 6.73 26.47 6.73 26.47C6.73 25.4 6.73 24.8 6.73 24.68C6.73 24.68 6.73 24.68 6.73 24.68C13.19 24.68 16.78 24.68 17.5 24.68C17.5 24.68 17.5 24.68 17.5 24.68C17.5 25.76 17.5 26.36 17.5 26.47Z" id="bWKx2jyaH"></path></defs><g><g><use xlink:href="#cd5LPCle1" opacity="1" fill="#00897b" fill-opacity="1"></use><g><use xlink:href="#cd5LPCle1" opacity="1" fill-opacity="0" stroke="#000000" stroke-width="1" stroke-opacity="0"></use></g></g><g><use xlink:href="#c5tdU4CMs" opacity="1" fill="#000000" fill-opacity="0"></use><g><use xlink:href="#c5tdU4CMs" opacity="1" fill-opacity="0" stroke="#000000" stroke-width="1" stroke-opacity="0"></use></g></g><g><use xlink:href="#dlPXdmawD" opacity="1" fill="#000000" fill-opacity="0"></use><g><use xlink:href="#dlPXdmawD" opacity="1" fill-opacity="0" stroke="#000000" stroke-width="1" stroke-opacity="0"></use></g></g><g><use xlink:href="#f78lPhqe4" opacity="1" fill="#000000" fill-opacity="0"></use><g><use xlink:href="#f78lPhqe4" opacity="1" fill-opacity="0" stroke="#000000" stroke-width="0" stroke-opacity="1"></use></g></g><g><use xlink:href="#c7EB7e1TJa" opacity="1" fill="#000000" fill-opacity="0"></use><g><use xlink:href="#c7EB7e1TJa" opacity="1" fill-opacity="0" stroke="#000000" stroke-width="1" stroke-opacity="0"></use></g></g><g><use xlink:href="#k3nyIqGAe1" opacity="1" fill="#000000" fill-opacity="0"></use><g><use xlink:href="#k3nyIqGAe1" opacity="1" fill-opacity="0" stroke="#000000" stroke-width="1" stroke-opacity="0"></use></g></g><g><use xlink:href="#a9wlnLG6g" opacity="1" fill="#000000" fill-opacity="0"></use><g><use xlink:href="#a9wlnLG6g" opacity="1" fill-opacity="0" stroke="#000000" stroke-width="1" stroke-opacity="0"></use></g></g><g><use xlink:href="#fchwmKNL5" opacity="1" fill="#000000" fill-opacity="0"></use><g><use xlink:href="#fchwmKNL5" opacity="1" fill-opacity="0" stroke="#000000" stroke-width="1" stroke-opacity="0"></use></g></g><g><use xlink:href="#c2RRrkPWbN" opacity="1" fill="#ffffff" fill-opacity="1"></use><g><use xlink:href="#c2RRrkPWbN" opacity="1" fill-opacity="0" stroke="#000000" stroke-width="1" stroke-opacity="0"></use></g></g><g><use xlink:href="#b6HmTTWs3s" opacity="1" fill="#000000" fill-opacity="0"></use><g><use xlink:href="#b6HmTTWs3s" opacity="1" fill-opacity="0" stroke="#000000" stroke-width="1" stroke-opacity="0"></use></g></g><g><use xlink:href="#cWE1w5KuP" opacity="1" fill="#000000" fill-opacity="0"></use><g><use xlink:href="#cWE1w5KuP" opacity="1" fill-opacity="0" stroke="#000000" stroke-width="1" stroke-opacity="0"></use></g></g><g><use xlink:href="#bhfgEuLND" opacity="1" fill="#000000" fill-opacity="0"></use><g><use xlink:href="#bhfgEuLND" opacity="1" fill-opacity="0" stroke="#000000" stroke-width="1" stroke-opacity="0"></use></g></g><g><use xlink:href="#aPERDqp5C" opacity="1" fill="#ffffff" fill-opacity="1"></use><g><use xlink:href="#aPERDqp5C" opacity="1" fill-opacity="0" stroke="#000000" stroke-width="1" stroke-opacity="0"></use></g></g><g><use xlink:href="#a6ihQHdpxT" opacity="1" fill="#000000" fill-opacity="0"></use><g><use xlink:href="#a6ihQHdpxT" opacity="1" fill-opacity="0" stroke="#000000" stroke-width="1" stroke-opacity="0"></use></g></g><g><use xlink:href="#d5sr4Mhb8M" opacity="1" fill="#000000" fill-opacity="0"></use><g><use xlink:href="#d5sr4Mhb8M" opacity="1" fill-opacity="0" stroke="#000000" stroke-width="1" stroke-opacity="0"></use></g></g><g><use xlink:href="#e15RS23q6X" opacity="1" fill="#000000" fill-opacity="0"></use><g><use xlink:href="#e15RS23q6X" opacity="1" fill-opacity="0" stroke="#000000" stroke-width="1" stroke-opacity="0"></use></g></g><g><use xlink:href="#b1WuNWvvva" opacity="1" fill="#ffffff" fill-opacity="1"></use><g><use xlink:href="#b1WuNWvvva" opacity="1" fill-opacity="0" stroke="#000000" stroke-width="1" stroke-opacity="0"></use></g></g><g><use xlink:href="#baE6jEgoj" opacity="1" fill="#000000" fill-opacity="0"></use><g><use xlink:href="#baE6jEgoj" opacity="1" fill-opacity="0" stroke="#000000" stroke-width="1" stroke-opacity="0"></use></g></g><g><use xlink:href="#c1hgYYtFtO" opacity="1" fill="#000000" fill-opacity="0"></use><g><use xlink:href="#c1hgYYtFtO" opacity="1" fill-opacity="0" stroke="#000000" stroke-width="1" stroke-opacity="0"></use></g></g><g><use xlink:href="#d5680DCpvy" opacity="1" fill="#000000" fill-opacity="0"></use><g><use xlink:href="#d5680DCpvy" opacity="1" fill-opacity="0" stroke="#000000" stroke-width="1" stroke-opacity="0"></use></g></g><g><use xlink:href="#a7hpZ54wHO" opacity="1" fill="#ffffff" fill-opacity="1"></use><g><use xlink:href="#a7hpZ54wHO" opacity="1" fill-opacity="0" stroke="#000000" stroke-width="1" stroke-opacity="0"></use></g></g><g><use xlink:href="#cpgfKGtow" opacity="1" fill="#000000" fill-opacity="0"></use><g><use xlink:href="#cpgfKGtow" opacity="1" fill-opacity="0" stroke="#000000" stroke-width="1" stroke-opacity="0"></use></g></g><g><use xlink:href="#dTJ4fMWCm" opacity="1" fill="#000000" fill-opacity="0"></use><g><use xlink:href="#dTJ4fMWCm" opacity="1" fill-opacity="0" stroke="#000000" stroke-width="1" stroke-opacity="0"></use></g></g><g><use xlink:href="#bWKx2jyaH" opacity="1" fill="#000000" fill-opacity="0"></use><g><use xlink:href="#bWKx2jyaH" opacity="1" fill-opacity="0" stroke="#000000" stroke-width="1" stroke-opacity="0"></use></g></g></g></svg>