<?xml version="1.0" encoding="UTF-8" standalone="no"?>
<!DOCTYPE svg PUBLIC "-//W3C//DTD SVG 1.1//EN" "http://www.w3.org/Graphics/SVG/1.1/DTD/svg11.dtd">
<svg version="1.1" xmlns="http://www.w3.org/2000/svg" xmlns:xlink="http://www.w3.org/1999/xlink" preserveAspectRatio="xMidYMid meet" viewBox="-1 -1 28 28" width="24" height="24"><defs><path d="M0 0L24 0L24 24L0 24L0 0Z" id="a3cJSPgA1f"></path><path d="M2 12C2 17.52 6.48 22 12 22C17.52 22 22 17.52 22 12C22 6.48 17.52 2 12 2C6.48 2 2 6.48 2 12ZM13.41 20L10.74 20C10.74 18.84 10.74 18.2 10.74 18.07C9.03 17.71 7.58 16.61 7.47 14.67C7.67 14.67 9.23 14.67 9.43 14.67C9.53 15.72 10.25 16.54 12.08 16.54C14.04 16.54 14.48 15.56 14.48 14.95C14.48 14.12 14.04 13.34 11.81 12.81C9.33 12.21 7.63 11.19 7.63 9.14C7.63 7.42 9.02 6.3 10.74 5.93C10.74 5.8 10.74 5.16 10.74 4L13.41 4C13.41 5.17 13.41 5.82 13.41 5.95C15.27 6.4 16.2 7.81 16.26 9.34C16.06 9.34 14.5 9.34 14.3 9.34C14.25 8.23 13.66 7.47 12.08 7.47C10.58 7.47 9.68 8.15 9.68 9.11C9.68 9.95 10.33 10.5 12.35 11.02C14.37 11.54 16.53 12.41 16.53 14.93C16.52 16.76 15.15 17.76 13.41 18.09C13.41 18.34 13.41 18.98 13.41 20Z" id="a3lKEngfKe"></path></defs><g><g><use xlink:href="#a3cJSPgA1f" opacity="1" fill="#000000" fill-opacity="0"></use><g><use xlink:href="#a3cJSPgA1f" opacity="1" fill-opacity="0" stroke="#000000" stroke-width="1" stroke-opacity="0"></use></g></g><g><use xlink:href="#a3lKEngfKe" opacity="1" fill="#ff5722" fill-opacity="1"></use><g><use xlink:href="#a3lKEngfKe" opacity="1" fill-opacity="0" stroke="#000000" stroke-width="1" stroke-opacity="0"></use></g></g></g></svg>