<?xml version="1.0" encoding="UTF-8" standalone="no"?>
<!DOCTYPE svg PUBLIC "-//W3C//DTD SVG 1.1//EN" "http://www.w3.org/Graphics/SVG/1.1/DTD/svg11.dtd">
<svg version="1.1" xmlns="http://www.w3.org/2000/svg" xmlns:xlink="http://www.w3.org/1999/xlink" preserveAspectRatio="xMidYMid meet" viewBox="-0.1428571428571428 -0.1428571428571428 24.57142857142857 24.57142857142857" width="20.57" height="20.57"><defs><path d="M21.43 0.86L21.43 21.43L0.86 21.43L0.86 0.86L21.43 0.86Z" id="bxZxaHNoZ"></path><path d="M21.43 0.86L21.43 21.43L0.86 21.43L0.86 0.86L21.43 0.86Z" id="bkvuvNw"></path><path d="M6.57 3.96L14.95 3.96L14.95 18.09L6.57 18.09L6.57 3.96Z" id="a1qSHCYjy6"></path><path d="M11.14 19.71C15.87 19.71 19.71 15.87 19.71 11.14C19.71 6.41 15.87 2.57 11.14 2.57C6.41 2.57 2.57 6.41 2.57 11.14C2.57 15.87 6.41 19.71 11.14 19.71ZM10.06 18C10.06 17.01 10.06 16.46 10.06 16.35C8.6 16.04 7.35 15.09 7.26 13.43C7.43 13.43 8.77 13.43 8.94 13.43C9.03 14.33 9.64 15.03 11.21 15.03C12.89 15.03 13.27 14.19 13.27 13.67C13.27 12.96 12.89 12.29 10.98 11.84C8.85 11.32 7.4 10.45 7.4 8.69C7.4 7.22 8.59 6.26 10.06 5.94C10.06 5.83 10.06 5.28 10.06 4.29C10.29 4.29 12.12 4.29 12.35 4.29C12.35 5.29 12.35 5.85 12.35 5.96C13.95 6.34 14.74 7.55 14.79 8.86C14.62 8.86 13.29 8.86 13.11 8.86C13.07 7.91 12.57 7.26 11.21 7.26C9.93 7.26 9.15 7.84 9.15 8.67C9.15 9.39 9.71 9.86 11.44 10.3C13.17 10.75 15.03 11.49 15.03 13.65C15.02 15.22 13.84 16.08 12.35 16.36C12.35 16.58 12.35 17.13 12.35 18C11.89 18 10.29 18 10.06 18Z" id="baVRYrX8n"></path><path d="M11.14 19.71C15.87 19.71 19.71 15.87 19.71 11.14C19.71 6.41 15.87 2.57 11.14 2.57C6.41 2.57 2.57 6.41 2.57 11.14C2.57 15.87 6.41 19.71 11.14 19.71ZM10.06 18C10.06 17.01 10.06 16.46 10.06 16.35C8.6 16.04 7.35 15.09 7.26 13.43C7.43 13.43 8.77 13.43 8.94 13.43C9.03 14.33 9.64 15.03 11.21 15.03C12.89 15.03 13.27 14.19 13.27 13.67C13.27 12.96 12.89 12.29 10.98 11.84C8.85 11.32 7.4 10.45 7.4 8.69C7.4 7.22 8.59 6.26 10.06 5.94C10.06 5.83 10.06 5.28 10.06 4.29C10.29 4.29 12.12 4.29 12.35 4.29C12.35 5.29 12.35 5.85 12.35 5.96C13.95 6.34 14.74 7.55 14.79 8.86C14.62 8.86 13.29 8.86 13.11 8.86C13.07 7.91 12.57 7.26 11.21 7.26C9.93 7.26 9.15 7.84 9.15 8.67C9.15 9.39 9.71 9.86 11.44 10.3C13.17 10.75 15.03 11.49 15.03 13.65C15.02 15.22 13.84 16.08 12.35 16.36C12.35 16.58 12.35 17.13 12.35 18C11.89 18 10.29 18 10.06 18Z" id="bbFlxzqIm"></path></defs><g><g><use xlink:href="#bxZxaHNoZ" opacity="1" fill="#7a4c4c" fill-opacity="0"></use><g><use xlink:href="#bxZxaHNoZ" opacity="1" fill-opacity="0" stroke="#000000" stroke-width="1" stroke-opacity="0"></use></g></g><g><use xlink:href="#bkvuvNw" opacity="1" fill="#000000" fill-opacity="0"></use><g><use xlink:href="#bkvuvNw" opacity="1" fill-opacity="0" stroke="#000000" stroke-width="1" stroke-opacity="0"></use></g></g><g><use xlink:href="#a1qSHCYjy6" opacity="1" fill="#ffffff" fill-opacity="1"></use></g><g><use xlink:href="#baVRYrX8n" opacity="1" fill="#f9bf2d" fill-opacity="1"></use><g><use xlink:href="#baVRYrX8n" opacity="1" fill-opacity="0" stroke="#000000" stroke-width="1" stroke-opacity="0"></use></g></g><g><use xlink:href="#bbFlxzqIm" opacity="1" fill="#f10000" fill-opacity="0"></use><g><use xlink:href="#bbFlxzqIm" opacity="1" fill-opacity="0" stroke="#000000" stroke-width="1" stroke-opacity="0"></use></g></g></g></svg>