<?xml version="1.0" encoding="UTF-8" standalone="no"?>
<!DOCTYPE svg PUBLIC "-//W3C//DTD SVG 1.1//EN" "http://www.w3.org/Graphics/SVG/1.1/DTD/svg11.dtd">
<svg version="1.1" xmlns="http://www.w3.org/2000/svg" xmlns:xlink="http://www.w3.org/1999/xlink" preserveAspectRatio="xMidYMid meet" viewBox="-0.19047619047619047 -0.19047619047619047 34.76190476190476 34.76190476190476" width="30.76" height="30.76"><defs><path d="M0.81 16.19C0.81 24.68 7.7 31.57 16.19 31.57C24.68 31.57 31.57 24.68 31.57 16.19C31.57 7.7 24.68 0.81 16.19 0.81C7.7 0.81 0.81 7.7 0.81 16.19Z" id="a1940T7PW"></path><path d="M25.38 7C25.38 18.03 25.38 24.15 25.38 25.38C25.38 25.38 25.38 25.38 25.38 25.38C14.35 25.38 8.23 25.38 7 25.38C7 25.38 7 25.38 7 25.38C7 14.35 7 8.23 7 7C7 7 7 7 7 7C18.03 7 24.15 7 25.38 7C25.38 7 25.38 7 25.38 7Z" id="b2yWDed73"></path><path d="M11.6 13.55C11.6 17.41 11.6 19.55 11.6 19.98C11.6 19.98 11.6 19.98 11.6 19.98C9.94 19.98 9.03 19.98 8.84 19.98C8.84 19.98 8.84 19.98 8.84 19.98C8.84 16.13 8.84 13.99 8.84 13.55C8.84 13.55 8.84 13.55 8.84 13.55C10.5 13.55 11.41 13.55 11.6 13.55C11.6 13.55 11.6 13.55 11.6 13.55Z" id="beUHYxtE7"></path><path d="M11.6 13.55C11.6 17.41 11.6 19.55 11.6 19.98C11.6 19.98 11.6 19.98 11.6 19.98C9.94 19.98 9.03 19.98 8.84 19.98C8.84 19.98 8.84 19.98 8.84 19.98C8.84 16.13 8.84 13.99 8.84 13.55C8.84 13.55 8.84 13.55 8.84 13.55C10.5 13.55 11.41 13.55 11.6 13.55C11.6 13.55 11.6 13.55 11.6 13.55Z" id="an3nnEFn"></path><path d="M17.57 13.55C17.57 17.41 17.57 19.55 17.57 19.98C17.57 19.98 17.57 19.98 17.57 19.98C15.91 19.98 15 19.98 14.81 19.98C14.81 19.98 14.81 19.98 14.81 19.98C14.81 16.13 14.81 13.99 14.81 13.55C14.81 13.55 14.81 13.55 14.81 13.55C16.47 13.55 17.38 13.55 17.57 13.55C17.57 13.55 17.57 13.55 17.57 13.55Z" id="c3kE9QeV8D"></path><path d="M17.57 13.55C17.57 17.41 17.57 19.55 17.57 19.98C17.57 19.98 17.57 19.98 17.57 19.98C15.91 19.98 15 19.98 14.81 19.98C14.81 19.98 14.81 19.98 14.81 19.98C14.81 16.13 14.81 13.99 14.81 13.55C14.81 13.55 14.81 13.55 14.81 13.55C16.47 13.55 17.38 13.55 17.57 13.55C17.57 13.55 17.57 13.55 17.57 13.55Z" id="c2H56JWvTl"></path><path d="M25.38 21.82C25.38 23.47 25.38 24.39 25.38 24.58C25.38 24.58 25.38 24.58 25.38 24.58C14.35 24.58 8.23 24.58 7 24.58C7 24.58 7 24.58 7 24.58C7 22.92 7 22 7 21.82C7 21.82 7 21.82 7 21.82C18.03 21.82 24.15 21.82 25.38 21.82C25.38 21.82 25.38 21.82 25.38 21.82Z" id="e1f8Kene2"></path><path d="M25.38 21.82C25.38 23.47 25.38 24.39 25.38 24.58C25.38 24.58 25.38 24.58 25.38 24.58C14.35 24.58 8.23 24.58 7 24.58C7 24.58 7 24.58 7 24.58C7 22.92 7 22 7 21.82C7 21.82 7 21.82 7 21.82C18.03 21.82 24.15 21.82 25.38 21.82C25.38 21.82 25.38 21.82 25.38 21.82Z" id="c48dp87baf"></path><path d="M23.54 13.55C23.54 17.41 23.54 19.55 23.54 19.98C23.54 19.98 23.54 19.98 23.54 19.98C21.89 19.98 20.97 19.98 20.78 19.98C20.78 19.98 20.78 19.98 20.78 19.98C20.78 16.13 20.78 13.99 20.78 13.55C20.78 13.55 20.78 13.55 20.78 13.55C22.44 13.55 23.36 13.55 23.54 13.55C23.54 13.55 23.54 13.55 23.54 13.55Z" id="hnIVtg1fs"></path><path d="M23.54 13.55C23.54 17.41 23.54 19.55 23.54 19.98C23.54 19.98 23.54 19.98 23.54 19.98C21.89 19.98 20.97 19.98 20.78 19.98C20.78 19.98 20.78 19.98 20.78 19.98C20.78 16.13 20.78 13.99 20.78 13.55C20.78 13.55 20.78 13.55 20.78 13.55C22.44 13.55 23.36 13.55 23.54 13.55C23.54 13.55 23.54 13.55 23.54 13.55Z" id="bf3ZHfZYI"></path><path d="M7 11.72L25.38 11.72L25.38 9.88L16.19 5.29L7 9.88L7 11.72Z" id="h1YKONi0r"></path><path d="M7 11.72L25.38 11.72L25.38 9.88L16.19 5.29L7 9.88L7 11.72Z" id="b3hpyu0qr"></path></defs><g><g><use xlink:href="#a1940T7PW" opacity="1" fill="#00897b" fill-opacity="1"></use><g><use xlink:href="#a1940T7PW" opacity="1" fill-opacity="0" stroke="#000000" stroke-width="1" stroke-opacity="0"></use></g></g><g><use xlink:href="#b2yWDed73" opacity="1" fill="#000000" fill-opacity="0"></use><g><use xlink:href="#b2yWDed73" opacity="1" fill-opacity="0" stroke="#000000" stroke-width="1" stroke-opacity="0"></use></g></g><g><use xlink:href="#beUHYxtE7" opacity="1" fill="#ffffff" fill-opacity="1"></use><g><use xlink:href="#beUHYxtE7" opacity="1" fill-opacity="0" stroke="#000000" stroke-width="1" stroke-opacity="0"></use></g></g><g><use xlink:href="#an3nnEFn" opacity="1" fill="#ffffff" fill-opacity="1"></use><g><use xlink:href="#an3nnEFn" opacity="1" fill-opacity="0" stroke="#000000" stroke-width="1" stroke-opacity="0"></use></g></g><g><use xlink:href="#c3kE9QeV8D" opacity="1" fill="#ffffff" fill-opacity="1"></use><g><use xlink:href="#c3kE9QeV8D" opacity="1" fill-opacity="0" stroke="#000000" stroke-width="1" stroke-opacity="0"></use></g></g><g><use xlink:href="#c2H56JWvTl" opacity="1" fill="#ffffff" fill-opacity="1"></use><g><use xlink:href="#c2H56JWvTl" opacity="1" fill-opacity="0" stroke="#000000" stroke-width="1" stroke-opacity="0"></use></g></g><g><use xlink:href="#e1f8Kene2" opacity="1" fill="#ffffff" fill-opacity="1"></use><g><use xlink:href="#e1f8Kene2" opacity="1" fill-opacity="0" stroke="#000000" stroke-width="1" stroke-opacity="0"></use></g></g><g><use xlink:href="#c48dp87baf" opacity="1" fill="#ffffff" fill-opacity="1"></use><g><use xlink:href="#c48dp87baf" opacity="1" fill-opacity="0" stroke="#000000" stroke-width="1" stroke-opacity="0"></use></g></g><g><use xlink:href="#hnIVtg1fs" opacity="1" fill="#ffffff" fill-opacity="1"></use><g><use xlink:href="#hnIVtg1fs" opacity="1" fill-opacity="0" stroke="#000000" stroke-width="1" stroke-opacity="0"></use></g></g><g><use xlink:href="#bf3ZHfZYI" opacity="1" fill="#ffffff" fill-opacity="1"></use><g><use xlink:href="#bf3ZHfZYI" opacity="1" fill-opacity="0" stroke="#000000" stroke-width="1" stroke-opacity="0"></use></g></g><g><use xlink:href="#h1YKONi0r" opacity="1" fill="#ffffff" fill-opacity="1"></use><g><use xlink:href="#h1YKONi0r" opacity="1" fill-opacity="0" stroke="#000000" stroke-width="1" stroke-opacity="0"></use></g></g><g><use xlink:href="#b3hpyu0qr" opacity="1" fill="#ffffff" fill-opacity="1"></use><g><use xlink:href="#b3hpyu0qr" opacity="1" fill-opacity="0" stroke="#000000" stroke-width="1" stroke-opacity="0"></use></g></g></g></svg>